# xmcd
#
# Track frame offsets: 
#        183
#        16270
#        25105
#        35328
#        48685
#        58945
#        71703
#        85568
#        97145
#        108813
#        122408
#        137585
#        150773
#        165395
#        179105
#        191615
#        203100
#        214198
#        229075
#        241405
#        253323
#        265030
#        276163
#        285803
#        297750
#        308360
#
# Disc length: 4242 seconds
#
# Revision: 7
# Processed by: cddbd v1.5.2PL0 Copyright (c) Steve Scherf et al.
# Submitted via: ExactAudioCopyFreeDBPlugin 1.0
#
DISCID=6510901a
DTITLE=Various Artist - Nashville Skyline
DYEAR=1995
DGENRE=Country
TTITLE0=Johnny Lee - Lookin' for love
TTITLE1=Bob Luman - Let's think about living
TTITLE2=Roger Miller - Engine Engine #9
TTITLE3=Lacy J. Dalton - Dream Baby
TTITLE4=Bobby Bare - Help me make it through the night
TTITLE5=Dickey Lee - Never ending song of love
TTITLE6=Johnny Carver - Tie a yellow ribbon ' round the ole oak tree
TTITLE7=Freddy Fender - Before the next teardrop falls
TTITLE8=Moe Bandy - Oklahoma Hills
TTITLE9=David Houston - Almost persuaded
TTITLE10=Ben Colder - Almost persuaded #2
TTITLE11=Jim Ed Brown - You can have her
TTITLE12=Glen Campbell - Rhinestone cowboy ( Live)
TTITLE13=Lee Greenwood - Hearts aren't made to break
TTITLE14=George Jones - Take me
TTITLE15=Ray Price - My shoes keep walking back to you
TTITLE16=Jimmy Dean - Little black book
TTITLE17=Roy Clark - Yesterday when I was young
TTITLE18=Skeeter Davis - What does it take
TTITLE19=Wynn Stewart - Wishful thinking
TTITLE20=Henson Cargill - Skip a rope
TTITLE21=The Louvin Brothers - When I stop dreaming
TTITLE22=Claude Gray - I'll have another cup of coffee then I'll go
TTITLE23=Roy Drusky - Another
TTITLE24=George Hamilton IV - A rose and a Baby Ruth
TTITLE25=Tommy Collins - It tickles
EXTD=YEAR: 1995
EXTT0=
EXTT1=
EXTT2=
EXTT3=
EXTT4=
EXTT5=
EXTT6=
EXTT7=
EXTT8=
EXTT9=
EXTT10=
EXTT11=
EXTT12=
EXTT13=
EXTT14=
EXTT15=
EXTT16=
EXTT17=
EXTT18=
EXTT19=
EXTT20=
EXTT21=
EXTT22=
EXTT23=
EXTT24=
EXTT25=
PLAYORDER=
